<svg id="_01._LISTRIK" data-name="01. LISTRIK" xmlns="http://www.w3.org/2000/svg" viewBox="0 0 256 256"><defs><style>.cls-1{fill:#fccb35;}.cls-2{fill:#f7b034;}.cls-3{fill:#0089cc;}</style></defs><title>01. LISTRIK</title><path class="cls-1" d="M134,50.64,84.43,129.93a3.58,3.58,0,0,0,3,5.47h38.68a3.94,3.94,0,0,1,3.75,5.11l-19.29,61.15a2.65,2.65,0,0,0,4.74,2.24l56.4-86.17a3.58,3.58,0,0,0-3-5.54H128.31a3.92,3.92,0,0,1-3.8-4.92l14.25-54.56A2.65,2.65,0,0,0,134,50.64Z"/><path class="cls-2" d="M168.76,112.19H128.31a3.92,3.92,0,0,1-3.8-4.92l14.25-54.56a2.56,2.56,0,0,0-1.28-3L111.31,114a4.85,4.85,0,0,0,4.51,6.63H151.9a4.85,4.85,0,0,1,4.19,7.29l-44.37,76.75a2.59,2.59,0,0,0,3.63-.79l56.4-86.17A3.58,3.58,0,0,0,168.76,112.19Z"/><path class="cls-3" d="M104.1,102.58A3,3,0,0,1,101.55,98l4.88-7.82a3,3,0,1,1,5.12,3.19l-4.88,7.82A3,3,0,0,1,104.1,102.58Z"/><path class="cls-3" d="M143.07,165.69a3,3,0,0,1-2.52-4.67l28.67-43.81a.52.52,0,0,0,0-.57.53.53,0,0,0-.49-.3H128.31a6.94,6.94,0,0,1-6.72-8.7l13.63-52.2L118.29,82.55a3,3,0,1,1-5.12-3.2l18.22-29.18a5.67,5.67,0,0,1,10.29,4.44l-14.26,54.55a.93.93,0,0,0,.89,1.15h40.45a6.59,6.59,0,0,1,5.52,10.2L145.6,164.33A3,3,0,0,1,143.07,165.69Z"/><path class="cls-3" d="M113.21,209.27a5.8,5.8,0,0,1-2.5-.57,5.54,5.54,0,0,1-3-6.82L127,140.74a.88.88,0,0,0-.14-.82.91.91,0,0,0-.73-.37H87.47a6.59,6.59,0,0,1-5.59-10.09l14.48-23.19a3,3,0,0,1,5.12,3.2L87,132.66a.57.57,0,0,0,.48.86h38.68a6.94,6.94,0,0,1,6.62,9l-18.46,58.57,20.6-31.48a3,3,0,0,1,5.05,3.3l-22.08,33.74A5.55,5.55,0,0,1,113.21,209.27Z"/><path class="cls-3" d="M207.55,119.74H191.87a3,3,0,1,1,0-6h15.68a3,3,0,0,1,0,6Z"/><path class="cls-3" d="M181.6,103.58a3.09,3.09,0,0,1-1.64-.48,3,3,0,0,1-.89-4.18L189.36,83a3,3,0,0,1,5.07,3.28l-10.3,15.93A3,3,0,0,1,181.6,103.58Z"/><path class="cls-3" d="M66.13,134.14H49.79a3,3,0,1,1,0-6H66.13a3,3,0,0,1,0,6Z"/><path class="cls-3" d="M64,169a3,3,0,0,1-2.53-4.66L63.6,161a3,3,0,0,1,5.07,3.27l-2.14,3.31A3,3,0,0,1,64,169Z"/><path class="cls-3" d="M70.84,158.91a3,3,0,0,1-1.64-.48,3,3,0,0,1-.9-4.17l5.57-8.61a3,3,0,0,1,5.07,3.27l-5.57,8.61A3,3,0,0,1,70.84,158.91Z"/></svg>