<svg id="_02._TELKOM" data-name="02. TELKOM" xmlns="http://www.w3.org/2000/svg" viewBox="0 0 256 256"><defs><style>.cls-1{fill:#f9eecf;}.cls-2{fill:#ddd3ba;}.cls-3{fill:#0089cc;}</style></defs><title>02. TELKOM</title><path class="cls-1" d="M72,86.69,66.7,95.4s-20.17,27.65,23,71.16h0l.21.2.2.2h0c43.51,43.21,71.17,23,71.17,23l8.7-5.31a10.26,10.26,0,0,0,1.1-15.47l-10.38-10.39a10.28,10.28,0,0,0-13.42-1L136.26,165s-7.43,4.38-28.21-16.31-16.3-28.2-16.3-28.2l7.06-11a10.26,10.26,0,0,0-1-13.42L87.47,85.59A10.26,10.26,0,0,0,72,86.69Z"/><path class="cls-2" d="M78.44,88.6,88.82,99a10.27,10.27,0,0,1,1,13.42l-7.07,11s-4.38,7.43,16.31,28.2S127.22,168,127.22,168l4.54-2.9c-4.25-.93-11.78-4.54-23.71-16.42-20.69-20.77-16.3-28.2-16.3-28.2l7.06-11a10.26,10.26,0,0,0-1-13.42L87.47,85.59a10.27,10.27,0,0,0-14.65.14A10.25,10.25,0,0,1,78.44,88.6Z"/><path class="cls-2" d="M171.11,169.23l-10.38-10.39a10.28,10.28,0,0,0-13.42-1l-1.63,1a10.19,10.19,0,0,1,6,2.93l10.39,10.38a10.27,10.27,0,0,1-1.1,15.47L152.27,193a14.62,14.62,0,0,1-1.76,1,28.27,28.27,0,0,0,10.8-4.05l8.7-5.31A10.26,10.26,0,0,0,171.11,169.23Z"/><path class="cls-3" d="M143.3,197.72l-1.35,0c-17.13-.5-35.21-10.06-53.76-28.43l-.18-.16-.16-.17-.09-.09-.16-.15-.17-.19C69.07,150,59.5,131.88,59,114.75c-.36-12.47,4.43-19.92,5.17-21l5.26-8.63.16-.24a13.29,13.29,0,0,1,20-1.42L100,93.85a13.35,13.35,0,0,1,1.3,17.26l-6.85,10.72c-.19.85-1,7.84,15.75,24.69s23.84,15.93,24.69,15.74l10.72-6.85a13.35,13.35,0,0,1,17.26,1.3l7.59,7.6h0l2.79,2.79a13.27,13.27,0,0,1-1.42,20l-.24.16L163,192.53C161.92,193.25,155,197.72,143.3,197.72Zm-51.16-33,.12.12c21.55,21.4,38.76,26.4,49.4,26.83,11.33.46,17.82-4,17.89-4.1l.19-.12,8.57-5.23a7.25,7.25,0,0,0,.67-10.85L158.6,161a7.3,7.3,0,0,0-9.48-.67l-.19.13-11.05,7.06-.09.06c-1.58.93-10.52,4.49-31.86-16.77s-17.71-30.29-16.78-31.86l.06-.09,7.07-11.06.12-.18a7.27,7.27,0,0,0-.67-9.48L85.34,87.72a7.25,7.25,0,0,0-10.85.67L69.27,97l-.14.2S64.58,103.71,65,115c.43,10.64,5.44,27.85,26.84,49.4l.12.13.06.06Zm77.87,20h0Zm-35-22.46Zm-40.51-40.5Z"/><path class="cls-3" d="M153.66,129.35a3,3,0,0,1-2.9-2.19,34,34,0,0,0-21.65-22.9,3,3,0,0,1,1.95-5.7,40,40,0,0,1,25.49,27,3,3,0,0,1-2.07,3.72A3,3,0,0,1,153.66,129.35Z"/><path class="cls-3" d="M173.84,124.88a3,3,0,0,1-2.89-2.19,59.08,59.08,0,0,0-37.6-39.75,3,3,0,1,1,2-5.7,65.11,65.11,0,0,1,41.43,43.81,3,3,0,0,1-2.07,3.72A3,3,0,0,1,173.84,124.88Z"/><path class="cls-3" d="M194,118.18a3,3,0,0,1-2.89-2.19,77.44,77.44,0,0,0-27.82-40.61,3,3,0,0,1,3.62-4.82,83.53,83.53,0,0,1,30,43.78,3,3,0,0,1-2.08,3.72A2.91,2.91,0,0,1,194,118.18Z"/><path class="cls-3" d="M152.34,68.16a3,3,0,0,1-1.32-.31,78,78,0,0,0-9-3.71,3,3,0,1,1,2-5.69,82.18,82.18,0,0,1,9.64,4,3,3,0,0,1-1.33,5.71Z"/></svg>