<svg id="_03._PDAM" data-name="03. PDAM" xmlns="http://www.w3.org/2000/svg" viewBox="0 0 256 256"><defs><style>.cls-1{fill:#f9eecf;}.cls-2{fill:#0089cc;}.cls-3{fill:#fccb35;}.cls-4{fill:#f7b034;}.cls-5{fill:#30c1ea;}</style></defs><title>03. PDAM</title><path class="cls-1" d="M160.5,180.71A16.62,16.62,0,0,1,148.36,186H105.05l-11.31,3.77L82.43,158.83H93.8a4,4,0,0,0,2.57-.92l9.33-7.68a7.35,7.35,0,0,1,5.42-1.64l49,5,24.58-18.91a6.93,6.93,0,0,1,9.13.59h0a6.93,6.93,0,0,1,.17,9.64L160.5,180.71"/><path class="cls-2" d="M93.74,192.58a2.83,2.83,0,0,1-2.66-1.86L79.77,159.81A2.84,2.84,0,0,1,82.43,156H93.8a1.22,1.22,0,0,0,.77-.28L103.9,148a10.22,10.22,0,0,1,7.51-2.27l47.85,4.85L183,132.4a9.77,9.77,0,0,1,13.1,14.42l-33.48,35.83a19.5,19.5,0,0,1-14.21,6.16H105.51l-10.87,3.63A2.82,2.82,0,0,1,93.74,192.58Zm-7.25-30.91,9,24.52,8.7-2.9a2.73,2.73,0,0,1,.89-.15h43.31a13.83,13.83,0,0,0,10.07-4.37h0L191.91,143a4.11,4.11,0,0,0-5.5-6.06L161.83,155.8a2.88,2.88,0,0,1-2,.58l-49-5a4.48,4.48,0,0,0-3.32,1l-9.34,7.69a6.88,6.88,0,0,1-4.37,1.57Z"/><path class="cls-3" d="M70.45,189.75l4.65,13.3a4.14,4.14,0,0,0,5.48,2.46l12.75-5.21a4.15,4.15,0,0,0,2.33-5.24l-1.92-5.31L82.43,158.83l-1.88-5.42a4.15,4.15,0,0,0-5.41-2.5l-12.35,4.77a4.14,4.14,0,0,0-2.41,5.23l6.05,17.32Z"/><path class="cls-4" d="M95.66,195.06l-1.92-5.31L82.43,158.83l-1.88-5.42a4.14,4.14,0,0,0-5.37-2.51c-1.13,1.09-5,1.55-4.46,3.12l16.8,46.13c.74,2.1,4.32.44,6.4-.16A4.15,4.15,0,0,0,95.66,195.06Z"/><path class="cls-2" d="M79,208.65A7,7,0,0,1,72.42,204l-4.64-13.3a2.83,2.83,0,0,1,5.35-1.87l4.65,13.3a1.3,1.3,0,0,0,1.72.78l12.75-5.22A1.3,1.3,0,0,0,93,196l-1.91-5.31-11.31-30.9,0-.05-1.88-5.42a1.31,1.31,0,0,0-1.7-.79l-12.35,4.78a1.3,1.3,0,0,0-.77,1.65l6,17.31a2.83,2.83,0,1,1-5.35,1.87l-6-17.31A7,7,0,0,1,61.77,153l12.35-4.77a7,7,0,0,1,9.11,4.21l1.87,5.4,11.31,30.9,1.91,5.32a7,7,0,0,1-3.92,8.82l-12.75,5.22A7,7,0,0,1,79,208.65Z"/><path class="cls-2" d="M152.52,169.2H134a2.84,2.84,0,0,1,0-5.67h18.57a3.93,3.93,0,0,0,3.08-6.39,3.85,3.85,0,0,0-2.68-1.46l-15.27-1.55a2.83,2.83,0,0,1,.57-5.64L153.49,150a9.6,9.6,0,0,1,8.57,10.74A9.63,9.63,0,0,1,152.52,169.2Z"/><path class="cls-5" d="M153.29,97.75c9.82,18.62-3,41.49-24,42.2-.36,0-.71,0-1.07,0s-.71,0-1.07,0c-21-.71-33.84-23.58-24-42.2L128.2,50.18Z"/><path class="cls-1" d="M153.29,97.75,128.2,50.18l-5,9.51,21.29,40.36A29,29,0,0,1,131,139.84C151,138,162.83,115.85,153.29,97.75Z"/><path class="cls-2" d="M128.2,142.81l-1.16,0a30.93,30.93,0,0,1-25.78-15.52,31.65,31.65,0,0,1-.65-30.84l25.08-47.57a2.84,2.84,0,0,1,5,2.65L105.62,99.07a26.05,26.05,0,0,0,.54,25.35,25.25,25.25,0,0,0,21.07,12.7c.64,0,1.3,0,1.94,0a25.25,25.25,0,0,0,21.07-12.7,26.05,26.05,0,0,0,.54-25.35L139,76.67A2.84,2.84,0,0,1,144,74l11.81,22.41a31.65,31.65,0,0,1-.65,30.84,30.93,30.93,0,0,1-25.78,15.52Z"/><path class="cls-2" d="M137.35,70.37a2.85,2.85,0,0,1-2.51-1.51l-3.49-6.62a2.84,2.84,0,1,1,5-2.64l3.49,6.61a2.84,2.84,0,0,1-2.51,4.16Z"/></svg>