<svg id="_04._BPJS" data-name="04. BPJS" xmlns="http://www.w3.org/2000/svg" viewBox="0 0 256 256"><defs><style>.cls-1{fill:#e8555c;}.cls-2{fill:#ce4552;}.cls-3{fill:#0089cc;}.cls-4{fill:#fccb35;}</style></defs><title>04. BPJS</title><path class="cls-1" d="M163.5,66.64c-12.12-1-27.41,5.35-31.1,15.68C128.81,72,110.24,65.49,98.11,66.42c-32,2.45-43,38.07-29.56,62.13,7.23,12.95,17.67,24.3,29.06,34.49,9.55,8.54,34.18,26.67,34.26,26.61s24.89-17.83,34.51-26.27c11.5-10.08,22.05-21.32,29.41-34.2C209.48,105.26,195.48,69.41,163.5,66.64Z"/><path class="cls-2" d="M126.15,91.46c2.19,2.53,6.46.16,7.68-8.07-6-10.33-26.48-17.68-35.72-17a39.74,39.74,0,0,0-12,2.78C98.23,68.57,118.63,78.48,126.15,91.46Z"/><path class="cls-2" d="M163.5,66.64a37.48,37.48,0,0,0-16.84,2.75,31.28,31.28,0,0,1,4.12.08c32,2.76,46,38.61,32.29,62.54-7.36,12.88-17.91,24.11-29.4,34.2-6,5.29-18,14.29-26.18,20.26,2.66,2,4.36,3.19,4.38,3.18s24.89-17.83,34.51-26.27c11.5-10.08,22.05-21.32,29.41-34.2C209.48,105.26,195.48,69.41,163.5,66.64Z"/><path class="cls-3" d="M132,193.38h-.15a3.31,3.31,0,0,1-2.33-.86c-.34-.21-.65-.43-.93-.64l-3-2.17c-1.72-1.27-5.25-3.89-9.57-7.18-6.72-5.1-15.8-12.14-20.91-16.71-13.49-12.07-23.25-23.67-29.83-35.45C57.42,116.25,57.2,98,64.75,84c6.75-12.59,18.5-20.13,33.08-21.25,10.7-.82,26.79,3.53,34.5,12.37C139.24,66.59,152.85,62,163.82,63a43.54,43.54,0,0,1,35.4,23.63c7.43,14.19,7.35,31.22-.21,44.44-5.14,9-12,17.71-21,26.64a3.71,3.71,0,1,1-5.22-5.27c8.52-8.45,15-16.65,19.81-25,6.32-11,6.35-25.35.08-37.32a36.27,36.27,0,0,0-29.47-19.68c-10.33-.89-24.19,4.58-27.29,13.23A3.69,3.69,0,0,1,132.4,86h0a3.7,3.7,0,0,1-3.49-2.49c-2.81-8.12-19.39-14.27-30.49-13.42-12,.91-21.6,7.08-27.11,17.36a41.8,41.8,0,0,0,.49,39.26c6.18,11,15.44,22,28.31,33.54,7.74,6.92,25.76,20.39,31.8,24.82,2.36-1.69,6.56-4.74,11.44-8.37a3.71,3.71,0,1,1,4.43,6c-4.36,3.24-7.92,5.83-9.65,7.08-1.25.91-2.28,1.64-3,2.15-.28.2-.59.42-.93.63A3.42,3.42,0,0,1,132,193.38Zm1.78-6.91a3.19,3.19,0,0,1,.44.31,4.84,4.84,0,0,0-.46-.33Zm-3.77,0a3.63,3.63,0,0,0-.47.33,3.19,3.19,0,0,1,.44-.31Zm1.86-.49a3.67,3.67,0,0,1,1.82.48,3.68,3.68,0,0,0-1.8-.49h0a3.66,3.66,0,0,0-1.81.47A3.71,3.71,0,0,1,131.87,185.94Z"/><path class="cls-3" d="M155.55,175.85a3.71,3.71,0,0,1-2.27-6.65c4.68-3.61,8.26-6.51,10.66-8.61a3.71,3.71,0,0,1,4.89,5.58c-2.51,2.2-6.22,5.2-11,8.9A3.69,3.69,0,0,1,155.55,175.85Z"/><path class="cls-4" d="M126.41,166.32l-.46,0a3.72,3.72,0,0,1-3.18-3L110,99,94.2,129.69a3.7,3.7,0,0,1-3.29,2H52.76a3.71,3.71,0,0,1,0-7.42H88.65l19.63-38.09a3.71,3.71,0,0,1,6.93,1l12.66,63.72,11.62-24.49a3.69,3.69,0,0,1,3.35-2.12h78.95a3.71,3.71,0,1,1,0,7.42H145.18l-15.42,32.5A3.72,3.72,0,0,1,126.41,166.32Z"/><path class="cls-4" d="M41.1,131.7H34.21a3.71,3.71,0,0,1,0-7.42H41.1a3.71,3.71,0,1,1,0,7.42Z"/></svg>