<svg id="_05._TV_KABEL" data-name="05. TV KABEL" xmlns="http://www.w3.org/2000/svg" viewBox="0 0 256 256"><defs><style>.cls-1{fill:#fccb35;}.cls-2{fill:#0089cc;}.cls-3{fill:#30c1ea;}</style></defs><title>05. TV KABEL</title><rect class="cls-1" x="61.73" y="64.52" width="132.53" height="87.96" rx="6.7" ry="6.7"/><path class="cls-2" d="M188.2,155.51H67.8a9.11,9.11,0,0,1-9.1-9.1V70.59a9.11,9.11,0,0,1,9.1-9.1H81.36a3,3,0,0,1,0,6.07H67.8a3,3,0,0,0-3,3v75.82a3,3,0,0,0,3,3H188.2a3,3,0,0,0,3-3V70.59a3,3,0,0,0-3-3H110.82a3,3,0,0,1,0-6.07H188.2a9.11,9.11,0,0,1,9.1,9.1v75.82A9.11,9.11,0,0,1,188.2,155.51Z"/><path class="cls-2" d="M101.29,67.56H90.89a3,3,0,0,1,0-6.07h10.4a3,3,0,0,1,0,6.07Z"/><rect class="cls-3" x="70.89" y="73.28" width="114.22" height="70.44" rx="15.03" ry="15.03"/><path class="cls-2" d="M179.05,79.35v58.31H77V79.35h102.1m.43-6.07h-103a5.63,5.63,0,0,0-5.63,5.63v59.18a5.63,5.63,0,0,0,5.63,5.63h103a5.63,5.63,0,0,0,5.63-5.63V78.91a5.63,5.63,0,0,0-5.63-5.63Z"/><path class="cls-2" d="M153,168.08H99.12a3,3,0,0,1,0-6.07H153a3,3,0,0,1,0,6.07Z"/><path class="cls-2" d="M162.22,194.51h-91A9.2,9.2,0,0,1,62,185.17c0-4.06,2.88-8.43,9.22-8.43h46.36c4,0,5.08-.39,5.35-.56a3.15,3.15,0,0,0,.07-.74V165.05a3,3,0,1,1,6.06,0v10.39c0,7.37-6.91,7.37-11.48,7.37H71.23c-2.09,0-3.16.79-3.16,2.36a3.2,3.2,0,0,0,3.16,3.27h91a3,3,0,0,1,0,6.07Z"/><path class="cls-2" d="M179.12,194.51h-7.37a3,3,0,0,1,0-6.07h7.37a3,3,0,0,1,0,6.07Z"/></svg>