<svg id="_06._PULSA_copy" data-name="06. PULSA copy" xmlns="http://www.w3.org/2000/svg" viewBox="0 0 256 256"><defs><style>.cls-1{fill:#fccb35;}.cls-2{fill:#30c1ea;}.cls-3{fill:#0089cc;}.cls-4{fill:#f9eecf;}.cls-5{fill:#e8555c;}</style></defs><title>06. PULSA</title><rect class="cls-1" x="87.06" y="58.08" width="82.13" height="136.46" rx="7.85" ry="7.85"/><rect class="cls-2" x="96.08" y="68.49" width="64.08" height="98.02" rx="21.39" ry="21.39"/><path class="cls-3" d="M152.37,74.39a1.89,1.89,0,0,1,1.89,1.89v82.43a1.9,1.9,0,0,1-1.89,1.9h-48.5a1.9,1.9,0,0,1-1.89-1.9V76.28a1.89,1.89,0,0,1,1.89-1.89h48.5m0-5.9h-48.5a7.79,7.79,0,0,0-7.79,7.79v82.43a7.79,7.79,0,0,0,7.79,7.79h48.5a7.79,7.79,0,0,0,7.79-7.79V76.28a7.79,7.79,0,0,0-7.79-7.79Z"/><circle class="cls-4" cx="128.12" cy="179.26" r="7.58"/><path class="cls-3" d="M123.84,197.49h-6.18a3,3,0,0,1,0-5.9h6.18a3,3,0,1,1,0,5.9Z"/><path class="cls-3" d="M159.29,197.49h-25.9a3,3,0,1,1,0-5.9h25.9a7,7,0,0,0,7-7V68a7,7,0,0,0-7-7H97a7,7,0,0,0-7,7V184.64a7,7,0,0,0,7,7h12a3,3,0,0,1,0,5.9H97a12.86,12.86,0,0,1-12.84-12.85V68A12.86,12.86,0,0,1,97,55.13h62.34A12.86,12.86,0,0,1,172.13,68V184.64A12.86,12.86,0,0,1,159.29,197.49Z"/><circle class="cls-4" cx="162.39" cy="72.01" r="22.55"/><path class="cls-3" d="M162.39,97.51A25.5,25.5,0,1,1,187.89,72,25.53,25.53,0,0,1,162.39,97.51Zm0-45.1A19.61,19.61,0,1,0,182,72,19.62,19.62,0,0,0,162.39,52.41Z"/><path class="cls-5" d="M162.31,71.74a5.66,5.66,0,0,0,1-3.37,5.28,5.28,0,0,0-1.82-4.23,7.81,7.81,0,0,0-5.18-1.52h-5.9A1.29,1.29,0,0,0,149,64V77.43a1.37,1.37,0,0,0,.37,1,1.41,1.41,0,0,0,1,.37h.94a1.41,1.41,0,0,0,1-.37,1.37,1.37,0,0,0,.38-1V74.14h3.16L158.8,78a1.78,1.78,0,0,0,1.53.79h1.28a1.08,1.08,0,0,0,.92-1.86l-2.6-3.42A5.27,5.27,0,0,0,162.31,71.74Zm-2.82-3.37a2.14,2.14,0,0,1-.73,1.79,4.34,4.34,0,0,1-2.63.62h-3.4V66h3.4a4.31,4.31,0,0,1,2.62.62A2.1,2.1,0,0,1,159.49,68.37Z"/><path class="cls-5" d="M175.66,67.46a5.23,5.23,0,0,0-4.23-1.77,6.9,6.9,0,0,0-2.74.52,5.78,5.78,0,0,0-1.55,1l0-.14a1.38,1.38,0,0,0-1.48-1.17h-.5a1.37,1.37,0,0,0-1,.37,1.34,1.34,0,0,0-.39,1V81.38a1.34,1.34,0,0,0,.39,1,1.37,1.37,0,0,0,1,.37H166a1.47,1.47,0,0,0,1-.37,1.37,1.37,0,0,0,.39-1V78.73A11.67,11.67,0,0,0,170,79c2.48,0,4.3-.54,5.41-1.61a6.56,6.56,0,0,0,1.68-4.94A7.63,7.63,0,0,0,175.66,67.46Zm-5.47,8.27a11.46,11.46,0,0,1-2.8-.32V71a5,5,0,0,1,1.45-1.49,3.31,3.31,0,0,1,1.74-.47,2.62,2.62,0,0,1,2.16.79,4.15,4.15,0,0,1,.67,2.58,3.54,3.54,0,0,1-.77,2.53A3.28,3.28,0,0,1,170.19,75.73Z"/></svg>