<svg id="_07._TIKET_KERETA" data-name="07. TIKET KERETA" xmlns="http://www.w3.org/2000/svg" viewBox="0 0 256 256"><defs><style>.cls-1{fill:#30c1ea;}.cls-2{fill:#fccb35;}.cls-3{fill:#0089cc;}.cls-4{fill:#f9eecf;}</style></defs><title>07. TIKET KERETA</title><rect class="cls-1" x="80.42" y="52.14" width="96.33" height="122.23" rx="12.18" ry="12.18"/><path class="cls-2" d="M80.42,113.25v48.94A12.17,12.17,0,0,0,92.6,174.36h72a12.17,12.17,0,0,0,12.18-12.17V113.25Z"/><path class="cls-3" d="M164.57,177.64h-72a15.47,15.47,0,0,1-15.46-15.45V113.25A3.28,3.28,0,0,1,80.42,110h96.33a3.28,3.28,0,0,1,3.28,3.28v48.94A15.47,15.47,0,0,1,164.57,177.64ZM83.7,116.53v45.66a8.9,8.9,0,0,0,8.9,8.89h72a8.9,8.9,0,0,0,8.9-8.89V116.53Z"/><path class="cls-3" d="M164.57,177.64h-72a15.47,15.47,0,0,1-15.46-15.45V64.31A15.47,15.47,0,0,1,92.6,48.86h40.9a3.28,3.28,0,1,1,0,6.55H92.6a8.91,8.91,0,0,0-8.9,8.9v97.88a8.9,8.9,0,0,0,8.9,8.89h72a8.9,8.9,0,0,0,8.9-8.89V64.31a8.91,8.91,0,0,0-8.9-8.9,3.28,3.28,0,0,1,0-6.55A15.47,15.47,0,0,1,180,64.31v97.88A15.47,15.47,0,0,1,164.57,177.64Z"/><path class="cls-3" d="M164.57,55.41h-5a3.28,3.28,0,1,1,0-6.55h5a3.28,3.28,0,1,1,0,6.55Z"/><path class="cls-3" d="M60.45,207.14a3.28,3.28,0,0,1-2.22-5.69L90.38,172a3.28,3.28,0,0,1,4.43,4.83l-32.15,29.5A3.23,3.23,0,0,1,60.45,207.14Z"/><path class="cls-3" d="M195.55,207.14a3.23,3.23,0,0,1-2.21-.86l-32.15-29.5a3.28,3.28,0,1,1,4.43-4.83l32.15,29.5a3.28,3.28,0,0,1-2.22,5.69Z"/><path class="cls-3" d="M174.12,187.47H81.88a3.28,3.28,0,1,1,0-6.55h92.24a3.28,3.28,0,1,1,0,6.55Z"/><path class="cls-3" d="M187.39,199.65H101.66a3.28,3.28,0,1,1,0-6.56h85.73a3.28,3.28,0,0,1,0,6.56Z"/><circle class="cls-4" cx="104.95" cy="142.81" r="9.19"/><circle class="cls-4" cx="150.36" cy="142.81" r="9.19"/><path class="cls-3" d="M90.73,199.65H68.61a3.28,3.28,0,0,1,0-6.56H90.73a3.28,3.28,0,1,1,0,6.56Z"/><path class="cls-3" d="M149.43,55.41h-5.84a3.28,3.28,0,1,1,0-6.55h5.84a3.28,3.28,0,0,1,0,6.55Z"/></svg>