<svg id="_09._E-WALLET" data-name="09. E-WALLET" xmlns="http://www.w3.org/2000/svg" viewBox="0 0 256 256"><defs><style>.cls-1{fill:#f7b034;}.cls-2{fill:#0089cc;}.cls-3{fill:#f9eecf;}.cls-4{fill:#fccb35;}.cls-5{fill:#e8555c;}</style></defs><title>09. E-WALLET</title><path class="cls-1" d="M71.32,95.35H178.1a8.85,8.85,0,0,1,8.85,8.85v20.51a0,0,0,0,1,0,0H62.36a0,0,0,0,1,0,0V104.31A9,9,0,0,1,71.32,95.35Z"/><path class="cls-2" d="M187,127.74H62.36a3,3,0,0,1-3-3V104.31a12,12,0,0,1,12-12H178.1A11.89,11.89,0,0,1,190,104.21v20.51A3,3,0,0,1,187,127.74Zm-121.57-6H183.93V104.21a5.84,5.84,0,0,0-5.83-5.83H71.32a5.94,5.94,0,0,0-5.94,5.93Z"/><polygon class="cls-3" points="74.23 111.98 153.7 74.41 178.62 126.19 96.26 167.48 74.23 111.98"/><path class="cls-2" d="M96.26,170.5a3.08,3.08,0,0,1-1.08-.2,3,3,0,0,1-1.73-1.71l-22-55.49a3,3,0,0,1,1.52-3.85L152.4,71.67a3,3,0,0,1,4,1.43l24.92,51.78a3,3,0,0,1-1.37,4L97.61,170.18A3,3,0,0,1,96.26,170.5Zm-18.17-57,19.76,49.8,76.75-38.48-22.33-46.4Z"/><path class="cls-4" d="M179.5,196.63H73.31c-4.45,0-11-4.54-11-11.45V104.42h0c0,5.62,3.67,7.56,11,7.56H179.5a14.14,14.14,0,0,1,14.14,14.14v56.36A14.15,14.15,0,0,1,179.5,196.63Z"/><path class="cls-1" d="M179.5,112H73.31c-7.28,0-11-1.94-11-7.56v16.87c.53,0,1.08,0,1.66,0H176.15a8.2,8.2,0,0,1,8.21,8.2v62.3a14.16,14.16,0,0,1-.62,4.14,14.14,14.14,0,0,0,9.9-13.5V126.12A14.14,14.14,0,0,0,179.5,112Z"/><path class="cls-1" d="M165.57,138.76h28.07a0,0,0,0,1,0,0v26a0,0,0,0,1,0,0H165.57a11,11,0,0,1-11-11v-3.9A11,11,0,0,1,165.57,138.76Z"/><path class="cls-2" d="M193.64,167.78H167.52a16,16,0,0,1,0-32.05h26.12a3,3,0,0,1,3,3v26A3,3,0,0,1,193.64,167.78Zm-26.12-26a10,10,0,0,0,0,19.95h23.1V141.78Z"/><path class="cls-5" d="M139.66,87.32c2.8-1.5,5.17-2,7.11-1.42s3.65,2.22,5.13,5l.34.62a1.5,1.5,0,0,1,.17,1.16,1.54,1.54,0,0,1-.8.88l-11,5.91q2.52,3.14,6.73.87l4.89-2.62a1.25,1.25,0,0,1,2,.76l.23.63a1.47,1.47,0,0,1-.74,2L149,103.53c-2.88,1.55-5.43,2-7.65,1.49s-4-2.18-5.49-4.86-1.92-5.27-1.27-7.42S137,88.77,139.66,87.32Zm-.68,9.2,8.6-4.62A3.94,3.94,0,0,0,145,89.63a5.69,5.69,0,0,0-3.68.87A5.31,5.31,0,0,0,138.72,93,4.81,4.81,0,0,0,139,96.52Z"/><path class="cls-2" d="M108.13,199.65H99.06a3,3,0,0,1,0-6.05h9.07a3,3,0,1,1,0,6.05Z"/><path class="cls-2" d="M179.5,199.65H118.28a3,3,0,0,1,0-6.05H179.5a11.13,11.13,0,0,0,11.12-11.12V126.12A11.13,11.13,0,0,0,179.5,115H73.31a21.91,21.91,0,0,1-7.93-1.17v71.35c0,5.23,5.13,8.42,7.93,8.42H88.92a3,3,0,0,1,0,6.05H73.31c-5.7,0-14-5.64-14-14.47V104.42a3,3,0,0,1,6,0c0,2.13,0,4.54,7.93,4.54H179.5a17.18,17.18,0,0,1,17.17,17.16v56.36A17.19,17.19,0,0,1,179.5,199.65Z"/><circle class="cls-3" cx="167.56" cy="151.71" r="6.52"/><path class="cls-2" d="M144.76,71.76a3,3,0,0,1-2.61-1.5l-5.44-9.37a3,3,0,0,1,5.24-3l5.43,9.36a3,3,0,0,1-1.1,4.13A3,3,0,0,1,144.76,71.76Z"/><path class="cls-2" d="M164.5,77a3,3,0,0,1-1.44-5.69l14.3-7.7a3,3,0,1,1,2.87,5.32l-14.3,7.71A3,3,0,0,1,164.5,77Z"/></svg>